<svg height="512pt" viewBox="0 0 512 512" width="512pt" xmlns="http://www.w3.org/2000/svg"><path d="m256 0-128 256 128 256c141.386719 0 256-114.613281 256-256s-114.613281-256-256-256zm0 0" fill="#a6cfe7"/><path d="m0 256c0 141.386719 114.613281 256 256 256v-512c-141.386719 0-256 114.613281-256 256zm0 0" fill="#bfebff"/><path d="m256 452c38.773438 0 74.910156-11.261719 105.335938-30.6875v-165.3125h-165.335938zm0 0" fill="#5a7ba0"/><path d="m256 360.5 105.335938 60.8125c54.511718-34.804688 90.664062-95.835938 90.664062-165.3125 0-2.863281-.074219-5.710938-.195312-8.546875h-175.804688zm0 0" fill="#7397b8"/><path d="m346.5 308.25 105.304688-60.796875c-3.089844-71.976563-44.988282-133.886719-105.304688-165.339844h-70.5zm0 0" fill="#5a7ba0"/><path d="m196 203.75h150.5v-121.636719c-27.074219-14.121093-57.851562-22.113281-90.5-22.113281zm0 0" fill="#7397b8"/><path d="m256 60c-38.773438 0-74.910156 11.261719-105.335938 30.6875v60.8125h105.335938zm0 0" fill="#8db3cf"/><path d="m256 264.546875v-113.046875l-105.335938-60.8125c-54.511718 34.804688-90.664062 95.835938-90.664062 165.3125 0 2.863281.074219 5.714844.195312 8.546875zm0 0" fill="#7397b8"/><path d="m165.5 203.75-105.304688 60.796875c3.089844 71.976563 44.988282 133.886719 105.304688 165.339844h90.5zm0 0" fill="#8db3cf"/><path d="m256 256-90.5 52.25v121.636719c27.074219 14.121093 57.851562 22.113281 90.5 22.113281zm0 0" fill="#7397b8"/><path d="m256 151.5-60 104.5 60 104.5 90.5-52.25v-104.5zm0 0" fill="#bfebff"/><path d="m256 151.5-90.5 52.25v104.5l90.5 52.25zm0 0" fill="#fff"/></svg>